# xmcd
#
# Track frame offsets:
#	182
#	11367
#	29230
#	50277
#	61202
#	77202
#	87715
#	103472
#	119145
#	153335
#	177972
#	194957
#
# Disc length: 2793 seconds
#
# Revision: 3
# Processed by: cddbd v1.5.2PL0 Copyright (c) Steve Scherf et al.
# Submitted via: audiograbber 1.83.01
#
DISCID=b10ae70c
DTITLE=Jerry Jeff Walker - Mr. Bojangles
DYEAR=1968
DGENRE=Oldies
TTITLE0=Gypsy Songman
TTITLE1=Mr. Bojangles
TTITLE2=Little Bird
TTITLE3=I Makes Money (Money Don't Make Me)
TTITLE4=Round And Round
TTITLE5=I Keep Changin'
TTITLE6=Maybe Mexico
TTITLE7=Broken Toys
TTITLE8=The Ballad Of The Hulk
TTITLE9=My Old Man
TTITLE10=Mr. Bojangles  (Mono Single Version)
TTITLE11=Round And Round  (Mono Single Version)
EXTD=
EXTT0=
EXTT1=
EXTT2=
EXTT3=
EXTT4=
EXTT5=
EXTT6=
EXTT7=
EXTT8=
EXTT9=
EXTT10=
EXTT11=
PLAYORDER=
